<svg width="24" height="24" viewBox="0 0 24 24" fill="none" xmlns="http://www.w3.org/2000/svg">
<path d="M12 1.5C14.7848 1.5 17.4555 2.60625 19.4246 4.57538C21.3938 6.54451 22.5 9.21523 22.5 12C22.5 14.7848 21.3938 17.4555 19.4246 19.4246C17.4555 21.3938 14.7848 22.5 12 22.5C9.21523 22.5 6.54451 21.3938 4.57538 19.4246C2.60625 17.4555 1.5 14.7848 1.5 12C1.5 9.21523 2.60625 6.54451 4.57538 4.57538C6.54451 2.60625 9.21523 1.5 12 1.5ZM12 9.375C12.1477 9.375 12.294 9.3459 12.4305 9.28936C12.567 9.23283 12.691 9.14996 12.7955 9.0455C12.9 8.94103 12.9828 8.81701 13.0394 8.68052C13.0959 8.54403 13.125 8.39774 13.125 8.25C13.125 8.10226 13.0959 7.95597 13.0394 7.81948C12.9828 7.68299 12.9 7.55897 12.7955 7.4545C12.691 7.35004 12.567 7.26717 12.4305 7.21064C12.294 7.1541 12.1477 7.125 12 7.125C11.702 7.125 11.4163 7.24337 11.2056 7.45407C10.9949 7.66476 10.8765 7.95053 10.8765 8.2485C10.8765 8.54647 10.9949 8.83224 11.2056 9.04293C11.4163 9.25363 11.702 9.372 12 9.372M12.75 11.247C12.75 11.0481 12.671 10.8573 12.5303 10.7167C12.3897 10.576 12.1989 10.497 12 10.497C11.8011 10.497 11.6103 10.576 11.4697 10.7167C11.329 10.8573 11.25 11.0481 11.25 11.247V15.747C11.25 15.9459 11.329 16.1367 11.4697 16.2773C11.6103 16.418 11.8011 16.497 12 16.497C12.1989 16.497 12.3897 16.418 12.5303 16.2773C12.671 16.1367 12.75 15.9459 12.75 15.747V11.247Z" fill="black"/>
</svg>
